Coordinates
version=1
nRows=19
nColumns=24
inDegrees=yes

Units are S.I. units (second, meters, Newtons, ...)
Angles are in degrees.

endheader
time	pelvis_tilt	pelvis_list	pelvis_rotation	pelvis_tx	pelvis_ty	pelvis_tz	hip_flexion_r	hip_adduction_r	hip_rotation_r	knee_angle_r	ankle_angle_r	subtalar_angle_r	mtp_angle_r	hip_flexion_l	hip_adduction_l	hip_rotation_l	knee_angle_l	ankle_angle_l	subtalar_angle_l	mtp_angle_l	lumbar_extension	lumbar_bending	lumbar_rotation
      0.50800000	     -7.72144710	      0.84057360	      7.09039398	     -0.71087467	      0.88508705	      0.28970594	     32.45951271	     -2.46752819	     -7.52433797	     -2.03339133	      2.33458846	     -0.46117608	      4.46601069	    -11.18942397	      1.37009202	      5.15751338	     -6.62424921	     13.31746705	      0.73881016	      9.34637094	      2.33613001	     -2.87396359	    -11.18971494
      0.51216667	     -7.79298377	      0.81607445	      7.14395973	     -0.70506390	      0.88375064	      0.29004288	     32.69127177	     -2.41016428	     -7.26534472	     -2.48655101	      2.27818638	     -0.56919657	      4.43205258	    -11.30266878	      1.26636687	      5.23190819	     -7.05166293	     13.41424080	      0.82863327	      9.40694625	      2.43625798	     -2.81415532	    -11.10850761
      0.51633333	     -7.85266405	      0.75971209	      7.18291970	     -0.69921002	      0.88244785	      0.29044565	     32.89354832	     -2.30268486	     -6.93628771	     -2.97986888	      2.15068655	     -0.86176581	      4.40986192	    -11.39033611	      1.12375208	      5.21766578	     -7.55757885	     13.57618112	      1.02524682	      9.48108619	      2.53149077	     -2.70251427	    -11.10056796
      0.52050000	     -7.89605107	      0.68318620	      7.20320554	     -0.69328965	      0.88120422	      0.29090635	     33.08200053	     -2.15798655	     -6.63977759	     -3.54489471	      1.85409548	     -1.27757662	      4.38838839	    -11.47535194	      0.94986845	      5.07958107	     -8.09859593	     13.69288084	      1.42817508	      9.63100788	      2.62662413	     -2.56959065	    -11.06509781
      0.52466667	     -7.94629503	      0.58926827	      7.21056846	     -0.68733527	      0.87997405	      0.29141395	     33.28635421	     -1.98749070	     -6.34220243	     -4.19155072	      1.56215290	     -1.68229649	      4.38683673	    -11.53850669	      0.76186242	      4.96636339	     -8.67358290	     13.80087916	      1.73922073	      9.80556624	      2.71563140	     -2.42305934	    -11.01962936
      0.52883333	     -7.99831352	      0.48683369	      7.19864036	     -0.68134571	      0.87876427	      0.29195549	     33.50045426	     -1.79553740	     -6.03831857	     -4.90906985	      1.24700705	     -2.11307014	      4.39807758	    -11.58252769	      0.57128918	      4.84030445	     -9.29340373	     13.89765090	      1.98236225	      9.96139738	      2.82814868	     -2.24173495	    -10.96125020
      0.53300000	     -8.02454053	      0.37014423	      7.17161038	     -0.67528760	      0.87763660	      0.29254909	     33.69066543	     -1.57430355	     -5.76732543	     -5.67955042	      0.79180236	     -2.64226627	      4.42843784	    -11.64830556	      0.35551267	      4.64282726	     -9.91942263	     13.94432676	      2.37993225	     10.19180846	      2.91820557	     -2.05817612	    -10.86307171
      0.53716667	     -8.05529204	      0.24268629	      7.13473589	     -0.66920288	      0.87654177	      0.29317117	     33.89097602	     -1.33601418	     -5.50182583	     -6.50239057	      0.32088563	     -3.16473987	      4.48023444	    -11.67824379	      0.13188477	      4.43422753	    -10.60937195	     13.96129264	      2.73794506	     10.48066074	      3.00776694	     -1.85090290	    -10.75955348
      0.54133333	     -8.07156720	      0.10638814	      7.07753917	     -0.66309008	      0.87548681	      0.29384107	     34.10252066	     -1.08188508	     -5.31825713	     -7.40996313	     -0.13771714	     -3.51322997	      5.21580013	    -11.67378710	     -0.11179641	      4.06589355	    -11.39884064	     13.97140667	      3.24091248	     13.64761807	      3.07509067	     -1.63643570	    -10.71437782
      0.54550000	     -8.11248547	     -0.04281707	      7.00250053	     -0.65690305	      0.87447158	      0.29453446	     34.31806386	     -0.79653883	     -5.02611461	     -8.30444328	     -0.67951636	     -4.12876391	      5.21700617	    -11.70402385	     -0.33659811	      3.96851534	    -12.07363696	     13.79734772	      3.23642445	     13.72228832	      3.19995443	     -1.38488293	    -10.54523788
      0.54966667	     -8.12589481	     -0.19841407	      6.91796622	     -0.65068570	      0.87352870	      0.29528094	     34.52203999	     -0.49572586	     -4.78612533	     -9.25824652	     -1.28627362	     -4.77889884	      5.23935818	    -11.72019478	     -0.58676896	      3.72488042	    -12.83860179	     13.71500738	      3.57927407	     13.89705410	      3.29804610	     -1.14559808	    -10.34831554
      0.55383333	     -8.15838011	     -0.35187191	      6.81010277	     -0.64444789	      0.87261629	      0.29604541	     34.75387870	     -0.19201242	     -4.55695725	    -10.24817716	     -1.80888235	     -5.23593823	      5.26268904	    -11.68302846	     -0.81974506	      3.47452015	    -13.67064627	     13.50034101	      3.75813437	     14.05725849	      3.40523881	     -0.89115149	    -10.20645888
      0.55800000	     -8.14207921	     -0.55481754	      6.72339690	     -0.63813795	      0.87182156	      0.29681754	     34.93265186	      0.15293811	     -4.42411429	    -11.26282649	     -2.32979827	     -5.75449338	      5.96151606	    -11.65532534	     -1.13672314	      3.12104416	    -14.57069312	     13.36556186	      4.16984124	     17.62190330	      3.48043526	     -0.57856278	    -10.07050413
      0.56216667	     -8.16979371	     -0.68993391	      6.57813619	     -0.63184249	      0.87102368	      0.29764707	     35.18670437	      0.45795546	     -4.19455390	    -12.34886839	     -2.83324380	     -6.21521874	      5.95165144	    -11.61855930	     -1.33429474	      2.92281561	    -15.41712796	     12.99582550	      4.21452037	     17.67472900	      3.58176135	     -0.35060357	     -9.86740452
      0.56633333	     -8.16312404	     -0.87234774	      6.45613461	     -0.62550202	      0.87033646	      0.29846627	     35.39097477	      0.79911540	     -4.04181851	    -13.42789384	     -3.31089675	     -6.71641661	      5.94923534	    -11.55941431	     -1.60436164	      2.65646061	    -16.37398292	     12.74721780	      4.45185102	     17.83312793	      3.66282467	     -0.05910964	     -9.61946224
      0.57050000	     -8.13797797	     -1.06232202	      6.31394306	     -0.61912400	      0.86973054	      0.29933769	     35.57639208	      1.16133700	     -3.87210643	    -14.53074094	     -3.63092159	     -7.10428960	      6.05843026	    -11.48764808	     -1.89155607	      2.30264125	    -17.38383163	     12.36470898	      4.68957235	     20.36083568	      3.70731729	      0.24393751	     -9.52930526
      0.57466667	     -8.14560631	     -1.23343379	      6.17320633	     -0.61271934	      0.86918222	      0.30013673	     35.79060517	      1.48739693	     -3.74552226	    -15.64058004	     -3.91883056	     -7.36954033	      6.05315542	    -11.38735045	     -2.12335227	      2.12683646	    -18.37862236	     11.83671335	      4.62522838	     20.40230906	      3.82246500	      0.54701213	     -9.31992582
      0.57883333	     -8.14451480	     -1.41160401	      6.02652682	     -0.60630669	      0.86869440	      0.30099688	     36.00039915	      1.83034687	     -3.61246748	    -16.77810896	     -4.11490951	     -7.67225212	      6.04857750	    -11.25478119	     -2.37488656	      1.89518358	    -19.44674237	     11.33917409	      4.68653637	     20.49380600	      3.89717539	      0.82723105	     -9.09022586
      0.58300000	     -8.11530027	     -1.59800181	      5.88276368	     -0.59987910	      0.86831853	      0.30184642	     36.16711093	      2.17801141	     -3.51129354	    -17.90459365	     -4.23770084	     -7.92169340	      6.04247866	    -11.11374432	     -2.64242420	      1.64277716	    -20.58179388	     10.80398158	      4.76969087	     20.64174241	      3.94872723	      1.13414049	     -8.86832151
